<?xml version="1.0" encoding="UTF-8" standalone="no"?>
<!-- Created with Inkscape (http://www.inkscape.org/) -->

<svg
   width="200.00015mm"
   height="51.273399mm"
   viewBox="0 0 200.00015 51.273398"
   version="1.1"
   id="svg5"
   inkscape:version="1.1.2 (b8e25be833, 2022-02-05)"
   sodipodi:docname="senai-logo.svg"
   xmlns:inkscape="http://www.inkscape.org/namespaces/inkscape"
   xmlns:sodipodi="http://sodipodi.sourceforge.net/DTD/sodipodi-0.dtd"
   xmlns="http://www.w3.org/2000/svg"
   xmlns:svg="http://www.w3.org/2000/svg">
  <sodipodi:namedview
     id="namedview7"
     pagecolor="#ffffff"
     bordercolor="#666666"
     borderopacity="1.0"
     inkscape:pageshadow="2"
     inkscape:pageopacity="0.0"
     inkscape:pagecheckerboard="0"
     inkscape:document-units="mm"
     showgrid="false"
     fit-margin-top="0"
     fit-margin-left="0"
     fit-margin-right="0"
     fit-margin-bottom="0"
     inkscape:zoom="0.22627417"
     inkscape:cx="86.178639"
     inkscape:cy="-274.00388"
     inkscape:window-width="1366"
     inkscape:window-height="745"
     inkscape:window-x="-8"
     inkscape:window-y="-8"
     inkscape:window-maximized="1"
     inkscape:current-layer="layer1-8" />
  <defs
     id="defs2">
    <clipPath
       clipPathUnits="userSpaceOnUse"
       id="clipPath72">
      <path
         d="m 325.469,664.725 h 227.287 v 34.016 H 325.469 Z"
         id="path70"
         inkscape:connector-curvature="0" />
    </clipPath>
  </defs>
  <g
     inkscape:label="Layer 1"
     inkscape:groupmode="layer"
     id="layer1"
     transform="translate(227.3793,609.33627)">
    <g
       inkscape:label="Layer 1"
       id="layer1-8"
       transform="translate(-5348.155,1971.3544)">
      <rect
         style="fill:#ff0000;fill-rule:evenodd;stroke-width:9.79813"
         id="rect246-1-2-6"
         width="199.99997"
         height="51.273399"
         x="5120.7759"
         y="-2580.6907" />
      <g
         id="g74-6-4-0-5-8-8"
         transform="matrix(1.1110944,0,0,-1.1110944,5169.998,-2562.4911)"
         style="fill:#ffffff">
        <path
           d="m 0,0 c 2.193,7.812 -4.168,10.192 -10.858,10.192 -6.779,0 -13.963,-2.111 -15.953,-9.788 -0.741,-3.502 0.239,-6.465 3.21,-7.902 6.39,-3.098 13.237,-2.155 12.302,-6.555 -0.457,-2.155 -3.33,-3.233 -5.403,-3.233 -3.233,0 -5.118,1.662 -4.43,4.715 h -8.979 c -1.736,-8.8 4.445,-11.008 11.988,-11.008 7.497,0 14.92,3.24 16.372,10.065 1.856,8.755 -5.926,9.294 -11.067,10.685 -2.245,0.629 -4.954,1.392 -4.452,3.772 0.344,1.616 2.424,2.963 4.489,2.963 1.527,0 2.619,-0.359 3.24,-1.033 C -8.875,2.2 -8.673,1.257 -8.979,0 Z m 25.973,-22.898 1.34,6.286 H 11.599 l 1.459,6.869 h 14.457 l 1.332,6.286 H 14.39 l 1.421,6.69 h 15.715 l 1.339,6.285 H 8.171 L 1.28,-22.898 Z m 5.074,0 h 8.081 l 5.276,24.829 h 0.089 l 5.725,-24.829 H 62.654 L 69.546,9.518 H 61.465 L 56.346,-14.547 56.241,-14.637 50.51,9.518 H 37.938 Z m 43.909,0 3.457,6.331 h 13.155 l 0.808,-6.331 h 10.147 L 96.619,9.518 H 85.664 L 65.977,-22.898 Z m 7.079,12.617 7.266,13.469 h 0.135 L 90.7,-10.281 Z m 32.88,-12.617 6.892,32.416 h -8.98 l -6.891,-32.416 z"
           style="fill:#ffffff;fill-opacity:1;fill-rule:evenodd;stroke:none"
           id="path1179"
           inkscape:connector-curvature="0" />
      </g>
      <path
         d="m 5120.7757,-2555.5887 h 10.4802 v 1.0706 h -10.4802 z"
         style="fill:#ffffff;fill-opacity:1;fill-rule:evenodd;stroke:none;stroke-width:0.567663"
         id="path1176"
         inkscape:connector-curvature="0" />
      <path
         d="m 5120.7757,-2564.2585 h 10.4802 v 1.0706 h -10.4802 z"
         style="fill:#ffffff;fill-opacity:1;fill-rule:evenodd;stroke:none;stroke-width:0.567663"
         id="path1173"
         inkscape:connector-curvature="0" />
      <path
         d="m 5120.7757,-2572.9272 h 10.4802 v 1.0706 h -10.4802 z"
         style="fill:#ffffff;fill-opacity:1;fill-rule:evenodd;stroke:none;stroke-width:0.567663"
         id="path1170"
         inkscape:connector-curvature="0" />
      <path
         d="m 5120.7757,-2546.92 h 10.4802 v 1.0706 h -10.4802 z"
         style="fill:#ffffff;fill-opacity:1;fill-rule:evenodd;stroke:none;stroke-width:0.567663"
         id="path1167"
         inkscape:connector-curvature="0" />
      <path
         d="m 5120.7757,-2538.2513 h 10.4802 v 1.0706 h -10.4802 z"
         style="fill:#ffffff;fill-opacity:1;fill-rule:evenodd;stroke:none;stroke-width:0.567663"
         id="path1164"
         inkscape:connector-curvature="0" />
      <path
         d="m 5310.2955,-2555.5887 h 10.4802 v 1.0706 h -10.4802 z"
         style="fill:#ffffff;fill-opacity:1;fill-rule:evenodd;stroke:none;stroke-width:0.567663"
         id="path1161"
         inkscape:connector-curvature="0" />
      <path
         d="m 5310.2955,-2564.2585 h 10.4802 v 1.0706 h -10.4802 z"
         style="fill:#ffffff;fill-opacity:1;fill-rule:evenodd;stroke:none;stroke-width:0.567663"
         id="path1158"
         inkscape:connector-curvature="0" />
      <path
         d="m 5310.2955,-2572.9272 h 10.4802 v 1.0706 h -10.4802 z"
         style="fill:#ffffff;fill-opacity:1;fill-rule:evenodd;stroke:none;stroke-width:0.567663"
         id="path1155"
         inkscape:connector-curvature="0" />
      <path
         d="m 5310.2955,-2546.92 h 10.4802 v 1.0706 h -10.4802 z"
         style="fill:#ffffff;fill-opacity:1;fill-rule:evenodd;stroke:none;stroke-width:0.567663"
         id="path1152"
         inkscape:connector-curvature="0" />
      <path
         d="m 5310.2955,-2538.2513 h 10.4802 v 1.0706 h -10.4802 z"
         style="fill:#ffffff;fill-opacity:1;fill-rule:evenodd;stroke:none;stroke-width:0.567663"
         id="path1149"
         inkscape:connector-curvature="0" />
    </g>
  </g>
</svg>
